<svg xmlns="http://www.w3.org/2000/svg" width="1422.482" height="1312.103" viewBox="0 0 1422.482 1312.103">
  <g id="Polygon_2" data-name="Polygon 2" transform="matrix(0.819, -0.574, 0.574, 0.819, 0, 692.005)" fill="#7e57c2" opacity="0.71">
    <path d="M 861.4935302734375 756.5 L 344.9803771972656 756.5 C 338.2415161132813 756.5 331.497802734375 755.7354736328125 324.9363708496094 754.2274780273438 C 318.4542236328125 752.7377319335938 312.1279296875 750.5180053710938 306.1330871582031 747.6297607421875 C 300.1382141113281 744.741455078125 294.4596557617188 741.1771850585938 289.2549438476563 737.0361938476563 C 283.9865112304688 732.8446044921875 279.185791015625 728.0470581054688 274.986083984375 722.7769165039063 L 45.08665466308594 434.2768859863281 C 38.7009391784668 426.2633056640625 33.7787971496582 417.3107299804688 30.45736694335938 407.6676025390625 C 27.22150993347168 398.2734680175781 25.5809383392334 388.4600219726563 25.5809383392334 378.5000305175781 C 25.5809383392334 368.5398864746094 27.22150993347168 358.7264709472656 30.45736694335938 349.3323059082031 C 33.7787971496582 339.6891784667969 38.7009391784668 330.7366027832031 45.08665466308594 322.7230224609375 L 274.9862365722656 34.22303009033203 C 279.1859436035156 28.95288848876953 283.9865112304688 24.15545845031738 289.2549438476563 19.9637451171875 C 294.4596557617188 15.82274436950684 300.1383666992188 12.25860214233398 306.1330871582031 9.370316505432129 C 312.1279296875 6.482030391693115 318.4542236328125 4.262316226959229 324.9363708496094 2.772601842880249 C 331.497802734375 1.264601945877075 338.2415161132813 0.500030517578125 344.9803771972656 0.500030517578125 L 861.4935302734375 0.500030517578125 C 868.2323608398438 0.500030517578125 874.97607421875 1.264601945877075 881.5375366210938 2.772601842880249 C 888.0196533203125 4.262316226959229 894.345947265625 6.482030391693115 900.3408203125 9.370316505432129 C 906.3356323242188 12.25860214233398 912.0142211914063 15.82274436950684 917.2189331054688 19.9637451171875 C 922.4873657226563 24.15545845031738 927.2880859375 28.95288848876953 931.48779296875 34.22303009033203 L 1161.387084960938 322.7231750488281 C 1167.77294921875 330.7367553710938 1172.694946289063 339.6893310546875 1176.016479492188 349.3324584960938 C 1179.252197265625 358.7265930175781 1180.892944335938 368.5400390625 1180.892944335938 378.5000305175781 C 1180.892944335938 388.4600219726563 1179.252197265625 398.2734680175781 1176.016479492188 407.6676025390625 C 1172.694946289063 417.3107299804688 1167.77294921875 426.2633056640625 1161.387084960938 434.2768859863281 L 931.48779296875 722.7769165039063 C 927.2880859375 728.0470581054688 922.4873657226563 732.8446044921875 917.2189331054688 737.0361938476563 C 912.0142211914063 741.1771850585938 906.3356323242188 744.741455078125 900.3408203125 747.6297607421875 C 894.345947265625 750.5180053710938 888.0196533203125 752.7377319335938 881.5375366210938 754.2274780273438 C 874.97607421875 755.7354736328125 868.2323608398438 756.5 861.4935302734375 756.5 Z" stroke="none"/>
    <path d="M 344.9803466796875 1.00006103515625 C 338.2792358398438 1.00006103515625 331.5730590820313 1.76031494140625 325.04833984375 3.2598876953125 C 318.6023559570313 4.74114990234375 312.3113403320313 6.9486083984375 306.35009765625 9.82073974609375 C 300.3887939453125 12.69287109375 294.741943359375 16.2371826171875 289.5662231445313 20.35504150390625 C 284.327392578125 24.523193359375 279.5535278320313 29.29388427734375 275.377197265625 34.53460693359375 L 45.4776611328125 323.0346069335938 C 39.1275634765625 331.0034484863281 34.23291015625 339.9060363769531 30.9300537109375 349.4951782226563 C 27.71240234375 358.8368835449219 26.0809326171875 368.595458984375 26.0809326171875 378.4998779296875 C 26.0809326171875 388.4044494628906 27.71240234375 398.1630249023438 30.9300537109375 407.5047302246094 C 34.23291015625 417.0939025878906 39.1275634765625 425.9964599609375 45.4776611328125 433.9653015136719 L 275.3770751953125 722.46533203125 C 279.5533447265625 727.7060546875 284.3272094726563 732.4767456054688 289.5662231445313 736.64501953125 C 294.7418212890625 740.7628784179688 300.3887939453125 744.3070068359375 306.35009765625 747.17919921875 C 312.3113403320313 750.0513305664063 318.6023559570313 752.2589111328125 325.0482177734375 753.7401733398438 C 331.5730590820313 755.23974609375 338.279052734375 756 344.9803466796875 756 L 861.4935302734375 756 C 868.1946411132813 756 874.9007568359375 755.23974609375 881.425537109375 753.7401733398438 C 887.8715209960938 752.2587280273438 894.162353515625 750.0513305664063 900.123779296875 747.17919921875 C 906.0850830078125 744.3070068359375 911.73193359375 740.7627563476563 916.9076538085938 736.6448974609375 C 922.146484375 732.4767456054688 926.92041015625 727.7058715820313 931.0966796875 722.46533203125 L 1160.99609375 433.9653015136719 C 1167.34619140625 425.9964599609375 1172.240844726563 417.0939025878906 1175.543701171875 407.5047302246094 C 1178.761352539063 398.1631774902344 1180.392822265625 388.4044494628906 1180.392822265625 378.5000305175781 C 1180.392822265625 368.595458984375 1178.761352539063 358.8368835449219 1175.543701171875 349.4953308105469 C 1172.240844726563 339.9061584472656 1167.34619140625 331.0034484863281 1160.99609375 323.0346069335938 L 931.0966796875 34.53460693359375 C 926.92041015625 29.29388427734375 922.146484375 24.523193359375 916.9076538085938 20.35504150390625 C 911.73193359375 16.2371826171875 906.0850830078125 12.69287109375 900.123779296875 9.82073974609375 C 894.1624755859375 6.9486083984375 887.8715209960938 4.74114990234375 881.425537109375 3.2598876953125 C 874.9007568359375 1.76031494140625 868.1946411132813 1.00006103515625 861.4935302734375 1.00006103515625 L 344.9803466796875 1.00006103515625 M 344.9803466796875 6.103515625e-05 L 861.4935302734375 6.103515625e-05 C 888.8942260742188 6.103515625e-05 914.802490234375 12.48248291015625 931.878662109375 33.91143798828125 L 1161.778076171875 322.4114685058594 C 1187.931030273438 355.2308959960938 1187.931030273438 401.7691650390625 1161.778076171875 434.5884704589844 L 931.878662109375 723.0884399414063 C 914.802490234375 744.517333984375 888.8942260742188 757 861.4935302734375 757 L 344.9803466796875 757 C 317.5795288085938 757 291.67138671875 744.5174560546875 274.5950927734375 723.0884399414063 L 44.6956787109375 434.5884704589844 C 18.5426025390625 401.7691650390625 18.5426025390625 355.2307434082031 44.6956787109375 322.4114685058594 L 274.59521484375 33.91143798828125 C 291.67138671875 12.48248291015625 317.5796508789063 6.103515625e-05 344.9803466796875 6.103515625e-05 Z" stroke="none" fill="#707070"/>
  </g>
</svg>
